<?xml version="1.0"?><svg width="800" height="600" xmlns="http://www.w3.org/2000/svg">
 <title>orange science flask</title>
 <metadata id="metadata3298">image/svg+xml</metadata>
 <g>
  <title>Layer 1</title>
  <g id="layer2"/>
  <g id="layer1">
   <g id="svg_1">
    <path d="m288.371155,40.093601c32.536194,28.892849 27.625427,50.73489 27.979095,85.707462l1.116913,110.444023l-158.477753,214.705353c-38.351501,57.828552 -12.406738,114.407227 50.496857,111.066162l363.756348,0.332397c67.993042,-0.258667 92.818542,-57.240936 40.126648,-117.28363l-150.328125,-208.286469l-2.829315,-110.62088c-0.353668,-34.972549 -5.705414,-56.729691 26.241058,-86.15591l-198.081726,0.091492z" id="rect3162" stroke-dashoffset="0" stroke-miterlimit="4" marker-end="none" marker-mid="none" marker-start="none" stroke-linejoin="round" stroke-linecap="round" stroke-width="0" stroke="#f27b0c" fill-rule="nonzero" fill="#ef7109"/>
    <path d="m458.973083,105.585938l-54.30838,0" id="path3180" stroke-miterlimit="4" stroke-linecap="round" stroke-width="0" stroke="#f27b0c" fill-rule="evenodd" fill="#ef7109"/>
    <path id="path3182" d="m458.973083,192.217407l-54.30838,0" stroke-miterlimit="4" stroke-linecap="round" stroke-width="0" stroke="#f27b0c" fill-rule="evenodd" fill="#ef7109"/>
    <path d="m489.761841,281.94281l-54.30835,0" id="path3184" stroke-miterlimit="4" stroke-linecap="round" stroke-width="0" stroke="#f27b0c" fill-rule="evenodd" fill="#ef7109"/>
    <path id="path3186" d="m542.786987,351.557373l-54.308411,0" stroke-miterlimit="4" stroke-linecap="round" stroke-width="0" stroke="#f27b0c" fill-rule="evenodd" fill="#ef7109"/>
    <path d="m595.812134,421.171906l-54.308472,0" id="path3188" stroke-miterlimit="4" stroke-linecap="round" stroke-width="0" stroke="#f27b0c" fill-rule="evenodd" fill="#ef7109"/>
   </g>
  </g>
 </g>
</svg>